<svg width="25" height="24" viewBox="0 0 25 24" fill="none" xmlns="http://www.w3.org/2000/svg">
<g clip-path="url(#clip0_34_77)">
<path fill-rule="evenodd" clip-rule="evenodd" d="M0.885071 12.067C0.885071 18.033 5.21807 22.994 10.8851 24V15.333H7.88507V12H10.8851V9.333C10.8851 6.333 12.8181 4.667 15.5521 4.667C16.4181 4.667 17.3521 4.8 18.2181 4.933V8H16.6851C15.2181 8 14.8851 8.733 14.8851 9.667V12H18.0851L17.5521 15.333H14.8851V24C20.5521 22.994 24.8851 18.034 24.8851 12.067C24.8851 5.43 19.4851 0 12.8851 0C6.28507 0 0.885071 5.43 0.885071 12.067Z" fill="black"/>
</g>
<defs>
<clipPath id="clip0_34_77">
<rect width="24" height="24" fill="white" transform="translate(0.885071)"/>
</clipPath>
</defs>
</svg>
