<svg width="93" height="70" viewBox="0 0 93 70" fill="none" xmlns="http://www.w3.org/2000/svg">
<g clip-path="url(#clip0_33_17)">
<path fill-rule="evenodd" clip-rule="evenodd" d="M81.375 19.9062V47.9375H75.5625V19.9062H63.9375C61.6251 19.9062 59.4075 19.2247 57.7724 18.0116C56.1373 16.7985 55.2188 15.1531 55.2188 13.4375V4.8125H23.25C21.7084 4.8125 20.23 5.26685 19.1399 6.0756C18.0499 6.88435 17.4375 7.98125 17.4375 9.125V47.9375H11.625V9.125C11.625 6.83751 12.8498 4.64371 15.0299 3.0262C17.21 1.4087 20.1669 0.5 23.25 0.5L55.2188 0.5L81.375 19.9062ZM24.7845 51.6031V68.8488H20.1868V61.4572H10.4044V68.8488H5.8125V51.6031H10.4102V58.6152H20.1868V51.6031H24.7787H24.7845ZM37.8684 54.458V68.8488H33.2533V54.458H26.6677V51.6031H44.4772V54.458H37.8684ZM50.5164 68.8488V57.3776H50.7373L56.2708 66.6882H59.2701L64.7687 57.3732H64.9896V68.8488H69.1455V51.6031H64.4955L57.8693 62.7984H57.7181L51.0919 51.6031H46.4128V68.8488H50.5164ZM77.8933 65.9422H87.7513V68.8488H73.2956V51.6031H77.8875V65.9422H77.8933Z" fill="black"/>
</g>
<defs>
<clipPath id="clip0_33_17">
<rect width="93" height="69" fill="white" transform="translate(0 0.5)"/>
</clipPath>
</defs>
</svg>
