<svg width="23" height="22" viewBox="0 0 23 22" fill="none" xmlns="http://www.w3.org/2000/svg">
<path fill-rule="evenodd" clip-rule="evenodd" d="M7.35007 0.066C8.52307 0.012 8.89707 0 11.8851 0C14.8731 0 15.2471 0.013 16.4191 0.066C17.5911 0.119 18.3911 0.306 19.0911 0.577C19.8241 0.854 20.4891 1.287 21.0391 1.847C21.5991 2.396 22.0311 3.06 22.3071 3.794C22.5791 4.494 22.7651 5.294 22.8191 6.464C22.8731 7.639 22.8851 8.013 22.8851 11C22.8851 13.988 22.8721 14.362 22.8191 15.535C22.7661 16.705 22.5791 17.505 22.3071 18.205C22.0311 18.9391 21.5984 19.6042 21.0391 20.154C20.4891 20.714 19.8241 21.146 19.0911 21.422C18.3911 21.694 17.5911 21.88 16.4211 21.934C15.2471 21.988 14.8731 22 11.8851 22C8.89707 22 8.52307 21.987 7.35007 21.934C6.18007 21.881 5.38007 21.694 4.68007 21.422C3.94599 21.146 3.28089 20.7133 2.73107 20.154C2.17145 19.6047 1.73839 18.9399 1.46207 18.206C1.19107 17.506 1.00507 16.706 0.951071 15.536C0.897071 14.361 0.885071 13.987 0.885071 11C0.885071 8.012 0.898071 7.638 0.951071 6.466C1.00407 5.294 1.19107 4.494 1.46207 3.794C1.73879 3.06008 2.17219 2.39531 2.73207 1.846C3.28111 1.2865 3.94554 0.853443 4.67907 0.577C5.37907 0.306 6.17907 0.12 7.34907 0.066H7.35007ZM16.3301 2.046C15.1701 1.993 14.8221 1.982 11.8851 1.982C8.94807 1.982 8.60007 1.993 7.44007 2.046C6.36707 2.095 5.78507 2.274 5.39707 2.425C4.88407 2.625 4.51707 2.862 4.13207 3.247C3.76712 3.60205 3.48625 4.03428 3.31007 4.512C3.15907 4.9 2.98007 5.482 2.93107 6.555C2.87807 7.715 2.86707 8.063 2.86707 11C2.86707 13.937 2.87807 14.285 2.93107 15.445C2.98007 16.518 3.15907 17.1 3.31007 17.488C3.48607 17.965 3.76707 18.398 4.13207 18.753C4.48707 19.118 4.92007 19.399 5.39707 19.575C5.78507 19.726 6.36707 19.905 7.44007 19.954C8.60007 20.007 8.94707 20.018 11.8851 20.018C14.8231 20.018 15.1701 20.007 16.3301 19.954C17.4031 19.905 17.9851 19.726 18.3731 19.575C18.8861 19.375 19.2531 19.138 19.6381 18.753C20.0031 18.398 20.2841 17.965 20.4601 17.488C20.6111 17.1 20.7901 16.518 20.8391 15.445C20.8921 14.285 20.9031 13.937 20.9031 11C20.9031 8.063 20.8921 7.715 20.8391 6.555C20.7901 5.482 20.6111 4.9 20.4601 4.512C20.2601 3.999 20.0231 3.632 19.6381 3.247C19.283 2.88207 18.8508 2.60121 18.3731 2.425C17.9851 2.274 17.4031 2.095 16.3301 2.046ZM10.4801 14.391C11.2647 14.7176 12.1384 14.7617 12.952 14.5157C13.7655 14.2697 14.4685 13.7489 14.9407 13.0422C15.4129 12.3356 15.6251 11.4869 15.5411 10.6411C15.4571 9.79534 15.0821 9.00497 14.4801 8.405C14.0963 8.02148 13.6323 7.72781 13.1214 7.54515C12.6105 7.36248 12.0655 7.29536 11.5256 7.34862C10.9856 7.40187 10.4642 7.57418 9.99887 7.85313C9.53353 8.13208 9.13581 8.51074 8.83437 8.96185C8.53293 9.41296 8.33526 9.92529 8.25559 10.462C8.17591 10.9986 8.21622 11.5463 8.37361 12.0655C8.531 12.5847 8.80155 13.0626 9.16579 13.4647C9.53003 13.8668 9.9789 14.1832 10.4801 14.391ZM7.88707 7.002C8.4121 6.47697 9.03539 6.0605 9.72137 5.77636C10.4073 5.49222 11.1426 5.34597 11.8851 5.34597C12.6276 5.34597 13.3628 5.49222 14.0488 5.77636C14.7348 6.0605 15.358 6.47697 15.8831 7.002C16.4081 7.52702 16.8246 8.15032 17.1087 8.8363C17.3929 9.52228 17.5391 10.2575 17.5391 11C17.5391 11.7425 17.3929 12.4777 17.1087 13.1637C16.8246 13.8497 16.4081 14.473 15.8831 14.998C14.8227 16.0583 13.3846 16.654 11.8851 16.654C10.3855 16.654 8.94741 16.0583 7.88707 14.998C6.82674 13.9377 6.23105 12.4995 6.23105 11C6.23105 9.50046 6.82674 8.06234 7.88707 7.002ZM18.7931 6.188C18.9232 6.06527 19.0273 5.91768 19.0994 5.75397C19.1714 5.59027 19.2099 5.41377 19.2125 5.23493C19.2151 5.05609 19.1818 4.87855 19.1146 4.71281C19.0473 4.54707 18.9475 4.39651 18.821 4.27004C18.6946 4.14357 18.544 4.04376 18.3783 3.97652C18.2125 3.90928 18.035 3.87598 17.8561 3.87858C17.6773 3.88119 17.5008 3.91965 17.3371 3.9917C17.1734 4.06374 17.0258 4.1679 16.9031 4.298C16.6644 4.55103 16.5337 4.88712 16.5388 5.23493C16.5438 5.58274 16.6843 5.91488 16.9302 6.16084C17.1762 6.40681 17.5083 6.54723 17.8561 6.5523C18.2039 6.55737 18.54 6.42669 18.7931 6.188Z" fill="black"/>
</svg>
