<svg width="121" height="90" viewBox="0 0 121 90" fill="none" xmlns="http://www.w3.org/2000/svg">
<path d="M56.3709 8.29876C57.6319 7.77424 59.0527 7.49884 60.4975 7.49884C61.9423 7.49884 63.363 7.77424 64.6241 8.29876L102.331 24.1425C103.512 24.6428 104.496 25.3651 105.185 26.237C105.873 27.109 106.241 28.1001 106.253 29.1113V60.8925C106.23 61.9426 105.826 62.9687 105.084 63.8623C104.343 64.756 103.29 65.4842 102.038 65.97L64.4678 81.735C63.183 82.2632 61.7315 82.5257 60.2642 82.4954C58.7968 82.4651 57.3672 82.1429 56.1238 81.5625L44.8507 76.7175C44.0254 76.4432 43.2843 76.0463 42.6727 75.5513C43.1516 75.0713 44.0087 75.0113 44.7045 74.8013C46.2499 74.3906 47.7403 73.8734 49.1562 73.2563C49.3346 73.1781 49.5402 73.1413 49.7468 73.1506C49.9534 73.16 50.1516 73.2151 50.3158 73.3088C53.5223 74.6775 56.7036 76.0875 59.9303 77.445C60.616 77.7413 61.3117 77.3475 61.8965 77.1075C74.1915 71.9375 86.4881 66.775 98.7864 61.62C99.0058 61.5386 99.1871 61.4099 99.3067 61.2507C99.4264 61.0915 99.4787 60.9092 99.457 60.7275C99.467 50.245 99.4687 39.7613 99.462 29.2763C99.4841 29.0725 99.4201 28.8688 99.2792 28.6933C99.1382 28.5179 98.9272 28.3795 98.6755 28.2975C86.1923 23.0675 73.7125 17.835 61.2361 12.6C61.0194 12.4894 60.7628 12.4302 60.5 12.4302C60.2372 12.4302 59.9806 12.4894 59.7639 12.6C47.2841 17.83 34.8077 23.0638 22.3346 28.3013C22.0814 28.3811 21.8686 28.5183 21.7265 28.6934C21.5844 28.8685 21.5202 29.0724 21.543 29.2763V60.7275C21.5218 60.9085 21.5756 61.0901 21.6973 61.2476C21.819 61.4052 22.0027 61.5312 22.2237 61.6088C25.5512 63.0138 28.8837 64.4138 32.2213 65.8088C33.1458 66.2339 34.1805 66.509 35.2578 66.6163C36.3351 66.7236 37.4307 66.6605 38.473 66.4313C39.3777 66.1781 40.1567 65.7252 40.7055 65.1334C41.2543 64.5415 41.5466 63.839 41.5433 63.12C41.5585 52.695 41.5332 42.27 41.5534 31.8525C41.55 31.7419 41.578 31.632 41.6355 31.53C41.6931 31.428 41.7789 31.3361 41.8873 31.2604C41.9958 31.1847 42.1245 31.1268 42.265 31.0906C42.4055 31.0543 42.5547 31.0405 42.7029 31.05C44.3062 31.0425 45.9044 31.035 47.5076 31.0538C47.6633 31.0592 47.8157 31.089 47.9549 31.1412C48.0941 31.1934 48.2169 31.2668 48.3154 31.3567C48.4139 31.4465 48.4858 31.5508 48.5264 31.6628C48.567 31.7747 48.5755 31.8917 48.5513 32.0063C48.5462 42.495 48.5664 52.9838 48.5412 63.4688C48.6487 64.8941 48.2399 66.3148 47.3575 67.5826C46.4752 68.8503 45.1515 69.9187 43.5247 70.6763C41.3522 71.4291 38.9739 71.7956 36.5781 71.7468C34.1822 71.698 31.8345 71.2352 29.7206 70.395C26.0553 69.0338 22.5615 67.4325 18.9667 65.97C17.7148 65.4846 16.6625 64.7565 15.9215 63.8626C15.1804 62.9688 14.778 61.9425 14.757 60.8925V29.1113C14.7677 28.0797 15.1492 27.0692 15.862 26.1843C16.5747 25.2994 17.5927 24.5724 18.8105 24.0788C31.334 18.8213 43.8558 13.5613 56.3759 8.29876H56.3709Z" fill="black"/>
<path d="M67.2962 30.3112C72.8303 29.7795 78.4539 30.4203 83.5203 32.16C85.3562 32.9746 86.8742 34.1318 87.9239 35.5171C88.9735 36.9023 89.5185 38.4674 89.5047 40.0575C89.4338 40.2564 89.2688 40.4296 89.0401 40.5453C88.8114 40.661 88.5342 40.7115 88.2594 40.6875C86.6713 40.6875 85.0882 40.7025 83.5051 40.68C83.1995 40.666 82.912 40.5674 82.6992 40.4036C82.4865 40.2398 82.3639 40.0227 82.3556 39.795C82.1757 39.0252 81.7727 38.2936 81.1746 37.6513C80.5765 37.0089 79.7976 36.471 78.892 36.075C75.8779 35.184 72.6228 34.837 69.3935 35.0625C67.0135 35.0074 64.6595 35.4435 62.5923 36.3225C61.8804 36.7333 61.3594 37.2996 61.1026 37.942C60.8458 38.5843 60.866 39.2704 61.1605 39.9037C61.6697 40.8037 63.0662 41.0925 64.2107 41.3587C70.7951 42.6412 77.7728 42.5137 84.2261 44.1975C85.6125 44.4845 86.8922 45.0038 87.9671 45.7155C89.042 46.4273 89.8836 47.3127 90.4273 48.3037C91.0744 49.7093 91.2306 51.2141 90.8814 52.6768C90.5322 54.1396 89.6889 55.5123 88.4308 56.6662C86.1548 58.4251 83.1972 59.6116 79.9709 60.06C75.7694 60.6951 71.4593 60.8317 67.2004 60.465C63.113 60.2904 59.1944 59.1929 55.9676 57.3187C54.6892 56.4452 53.6861 55.3724 53.0298 54.177C52.3735 52.9816 52.0803 51.6932 52.1712 50.4037C52.2029 50.1969 52.3429 50.0077 52.5609 49.8771C52.7789 49.7466 53.0574 49.6852 53.3358 49.7062C54.934 49.695 56.5272 49.6912 58.1254 49.7062C58.2732 49.7043 58.4201 49.7241 58.5576 49.7646C58.695 49.805 58.8204 49.8654 58.9263 49.9421C59.0322 50.0188 59.1167 50.1103 59.1748 50.2115C59.2329 50.3126 59.2635 50.4213 59.2648 50.5312C59.3434 51.2664 59.6237 51.9818 60.0885 52.6332C60.5533 53.2846 61.1927 53.8583 61.9671 54.3187C65.3843 55.5695 69.2028 56.0864 72.9933 55.8112C76.1668 55.9914 79.3349 55.4148 82.038 54.165C82.6609 53.7132 83.1142 53.1482 83.353 52.5259C83.5918 51.9036 83.6077 51.2458 83.3993 50.6175C83.006 49.5675 81.5338 49.08 80.2684 48.7612C73.7646 47.2312 66.7164 47.7862 60.2782 46.0612C58.928 45.7666 57.6798 45.2576 56.6196 44.5694C55.5595 43.8812 54.7126 43.0302 54.1374 42.075C53.3981 40.6505 53.2112 39.1002 53.598 37.6006C53.9848 36.101 54.9298 34.7123 56.3255 33.5925C59.3675 31.5944 63.2413 30.4358 67.2962 30.3112Z" fill="black"/>
</svg>
