<svg width="90" height="84" viewBox="0 0 90 84" fill="none" xmlns="http://www.w3.org/2000/svg">
<path d="M80.8333 2.5H9.16667C7.26595 2.5 5.44308 3.1936 4.09907 4.42821C2.75506 5.66283 2 7.33732 2 9.08333V74.9167C2 76.6627 2.75506 78.3372 4.09907 79.5718C5.44308 80.8064 7.26595 81.5 9.16667 81.5H80.8333C82.734 81.5 84.5569 80.8064 85.9009 79.5718C87.2449 78.3372 88 76.6627 88 74.9167V9.08333C88 7.33732 87.2449 5.66283 85.9009 4.42821C84.5569 3.1936 82.734 2.5 80.8333 2.5Z" stroke="black" stroke-width="4"/>
<path d="M21.1111 22.25V61.75" stroke="black" stroke-width="4" stroke-linecap="round" stroke-linejoin="round"/>
<path d="M25.8889 44.1944C33.0556 44.1944 42.6111 42.4389 42.6111 33.2222C42.6111 24.0056 33.0556 22.25 25.8889 22.25H21.1111V44.1944H25.8889Z" stroke="black" stroke-width="4" stroke-linecap="round" stroke-linejoin="round"/>
<path d="M68.8889 35.4715C66.5 35.4715 54.5556 34.3787 54.5556 42.0263C54.5556 49.6762 68.8889 47.4905 68.8889 55.1403C68.8889 62.788 54.5556 61.6951 54.5556 61.6951" stroke="black" stroke-width="4" stroke-linecap="round" stroke-linejoin="round"/>
</svg>
