<svg width="24" height="25" viewBox="0 0 24 25" fill="none" xmlns="http://www.w3.org/2000/svg">
<path d="M11.9767 24.001L11.802 24.002C9.36937 24.002 7.11145 23.224 5.24521 21.894L5.28553 21.921C3.37483 20.5773 1.86973 18.696 0.945369 16.496L0.914649 16.415C0.374911 15.1046 0.0737932 13.7011 0.0266491 12.276L0.0256891 12.254C-0.0585212 10.675 0.0645341 9.09136 0.391449 7.547L0.371289 7.662C0.686538 6.12833 1.19663 4.64527 1.88809 3.252L1.84393 3.351C2.43189 2.09549 3.23442 0.961997 4.21225 0.006L4.21801 0L4.07209 3.882C4.16937 3.75267 4.46985 3.68133 4.97353 3.668C5.47721 3.65467 5.78665 3.726 5.90185 3.882C6.39039 3.0338 7.12585 2.36998 8.00137 1.987L8.03113 1.976C8.99384 1.46984 10.052 1.19154 11.13 1.161H11.1415C10.5301 1.74945 10.0034 2.42677 9.57769 3.172L9.55561 3.213C9.07201 3.85843 8.80011 4.64853 8.77993 5.467V5.472C9.01321 5.549 9.29353 5.614 9.58057 5.655L9.60841 5.658C9.93993 5.70867 10.2183 5.74333 10.4436 5.762C10.6689 5.78067 10.9694 5.799 11.345 5.817C11.7207 5.835 11.9441 5.849 12.0151 5.859C12.1476 5.905 12.1895 6.11467 12.1409 6.488C12.0898 6.86657 11.9493 7.22599 11.7319 7.534L11.7358 7.528C11.6694 7.61862 11.5966 7.70387 11.5178 7.783L11.5169 7.784C11.293 7.9723 11.0492 8.13334 10.7902 8.264L10.7671 8.274C10.3559 8.5001 9.91301 8.65736 9.45481 8.74L9.42793 8.744L9.63145 11.36L7.78825 10.434C7.63223 10.791 7.59769 11.1928 7.69033 11.573L7.68745 11.561C7.77961 11.918 7.94473 12.227 8.16649 12.482L8.16457 12.48C8.39689 12.74 8.68873 12.937 9.01897 13.049L9.03337 13.053C9.38326 13.1778 9.75782 13.2081 10.122 13.141L10.1086 13.143C10.5972 13.05 11.033 12.883 11.4305 12.651L11.4094 12.663C11.8254 12.4283 12.1946 12.221 12.5172 12.041C12.8151 11.8666 13.1542 11.7835 13.4954 11.801H13.4916H13.5118C13.9601 11.801 14.369 11.974 14.681 12.259L14.6791 12.257C14.7982 12.368 14.8854 12.5113 14.931 12.6709C14.9766 12.8305 14.9788 13.0002 14.9374 13.161L14.9383 13.155C14.9294 13.1737 14.9185 13.199 14.9057 13.231C14.8735 13.2929 14.8352 13.3513 14.7914 13.405L14.7924 13.404C14.7274 13.4894 14.6477 13.5613 14.5572 13.616L14.5534 13.618C14.4252 13.6889 14.2867 13.7376 14.1434 13.762L14.1358 13.763C13.9294 13.8016 13.7185 13.806 13.5108 13.776L13.5214 13.777C13.0702 14.5697 12.4138 15.214 11.6273 15.636L11.6014 15.649C10.9385 15.9498 10.2229 16.1037 9.49993 16.101C9.26089 16.101 9.02665 16.085 8.79625 16.053L8.82313 16.056C9.43821 16.5952 10.1626 16.9822 10.9418 17.188L10.9783 17.196C11.72 17.3923 12.4938 17.4179 13.2458 17.271L13.2132 17.276C13.9408 17.1287 14.6458 16.8791 15.3089 16.534L15.2618 16.556C15.8851 16.2446 16.4591 15.8359 16.9639 15.344L16.9601 15.347C17.3835 14.9402 17.7397 14.4635 18.0142 13.936L18.0276 13.907C18.4114 13.0752 18.5893 12.1567 18.545 11.235V11.247C18.5184 10.3364 18.3441 9.43705 18.0295 8.587L18.0478 8.642C17.8399 7.98907 17.482 7.39895 17.0052 6.923L17.0033 6.922C17.6974 7.222 18.2964 7.591 18.8369 8.033L18.8206 8.02C19.2766 8.43 19.627 8.953 19.8343 9.549L19.842 9.574C19.9485 7.9446 19.6846 6.31201 19.0716 4.80884C18.4586 3.30568 17.5138 1.97435 16.314 0.923L16.2986 0.91C18.4778 1.51082 20.3976 2.86211 21.7457 4.744L21.7649 4.771C23.1448 6.87891 23.846 9.38898 23.7674 11.939V11.922L23.7684 12.042C23.7684 13.259 23.5716 14.428 23.2087 15.516L23.2298 15.442C22.8504 16.6339 22.29 17.7548 21.57 18.762L21.5911 18.731C20.8798 19.7342 20.0462 20.6367 19.1114 21.416L19.0836 21.438C17.0566 23.0975 14.5529 23.9991 11.9748 23.998L11.9767 24.001Z" fill="black"/>
</svg>
